<svg xmlns="http://www.w3.org/2000/svg" xmlns:xlink="http://www.w3.org/1999/xlink" viewBox="0 0 100 100">
	<g id="empty-state-item">
		<g stroke="none" stroke-width="1" fill="none" fill-rule="evenodd"> <g  fill-rule="nonzero"> <g transform="translate(16.000000, 8.000000)"> <path d="M65.3684211,84 L3.63157895,84 C1.62513158,84 0,82.3656522 0,80.3478261 L0,3.65217391 C0,1.63434783 1.62513158,0 3.63157895,0 L47.2105263,0 L69,21.9130435 L69,80.3478261 C69,82.3656522 67.3748684,84 65.3684211,84 Z" fill="#D3D8E8"></path> <path d="M47,0 L47,18.3333333 C47,20.3591667 48.6408333,22 50.6666667,22 L69,22 L47,0 Z" fill="#C2C7DA"></path> <path d="M27.1668704,55 C26.6975501,55 26.2282298,54.8180032 25.8707397,54.4558669 L18.5376101,47.0274281 C17.8207966,46.3012982 17.8207966,45.1276049 18.5376101,44.401475 C19.2544235,43.6753451 20.413058,43.6753451 21.1298714,44.401475 L27.1668704,50.5169372 L47.8701286,29.5445974 C48.586942,28.8184675 49.7455765,28.8184675 50.4623899,29.5445974 C51.1792034,30.2707273 51.1792034,31.4444206 50.4623899,32.1705505 L28.463001,54.4558669 C28.105511,54.8180032 27.6361907,55 27.1668704,55 Z" fill="#FFFFFF"></path> </g> </g> </g>
	</g>
</svg>
