<svg xmlns="http://www.w3.org/2000/svg" xmlns:xlink="http://www.w3.org/1999/xlink" viewBox="0 0 109 20">
	<path
		d="M64.084 8.338l-2.918-6.635C60.844.966 60.21.383 59.426.21a2.45 2.45 0 0 0-2.784 1.408l-3 6.874a1.559 1.559 0 1 0 2.86 1.237l2.328-5.45 2.303 5.4c.31.72 1.11 1.14 1.916.93.99-.26 1.44-1.34 1.03-2.28"
		fill="#fe424d"/>
	<path
		d="M108.34 17.028l-6.39-8.39 5.617-5.81c.923-.955.246-2.55-1.082-2.55-.414 0-.81.17-1.093.47l-8.805 9.308-2.923 3.09a1.802 1.802 0 0 0-.493 1.24v3.517c0 .933.7 1.777 1.64 1.818.98.05 1.79-.73 1.79-1.7v-3.93l3.03-3.11 6.15 8.1c.43.56 1.17.8 1.88.56 1.148-.4 1.445-1.63.708-2.59M96.59 7.43V2.083c0-.925-.692-1.754-1.616-1.802h-.094c-.944 0-1.71.77-1.71 1.71v5.44c0 .95.766 1.71 1.71 1.71.942 0 1.707-.76 1.707-1.71m-9.112 6.77c0-3.27-2.138-4.75-6.25-5.75-3.722-.89-4.61-1.55-4.61-3.05 0-1.33 1.166-2.36 3.166-2.36 1.36 0 2.71.41 4.05 1.19.73.42 1.65.24 2.13-.44.55-.77.31-1.84-.51-2.32C83.83.51 82 0 79.84 0c-3.867 0-6.64 2.306-6.64 5.64 0 3.638 2.333 4.86 6.472 5.833 3.61.86 4.39 1.61 4.39 3 0 1.527-1.335 2.5-3.446 2.5-1.914 0-3.48-.576-4.974-1.617a1.607 1.607 0 0 0-2.155.266c-.62.736-.443 1.837.358 2.37C75.86 19.336 78.14 20 80.53 20c4.084 0 6.945-2.167 6.945-5.805m-19.43 3.245l-1.878-4.348a1.807 1.807 0 0 0-1.656-1.096l-2.35-.002v.002h-8.85c-.74 0-1.42.45-1.72 1.143l-1.91 4.43c-.46 1.07.32 2.27 1.48 2.27a1.6 1.6 0 0 0 1.48-.99l1.73-4.19 8.874-.03 1.81 4.17c.313.75 1.13 1.19 1.957.97 1.02-.27 1.486-1.38 1.06-2.358M47.64 1.772c-.047-.853-.815-1.5-1.672-1.5H44.4c-.874 0-1.582.71-1.582 1.587 0 .88.708 1.59 1.583 1.59h1.66c.9 0 1.63-.76 1.58-1.67m-6.16 16.36V2.1c0-1.008-.82-1.827-1.82-1.827h-6.2c-.9 0-1.63.755-1.58 1.668.04.86.81 1.5 1.67 1.5h4.49v14.7c0 .88.71 1.59 1.59 1.59h.28c.87 0 1.58-.71 1.58-1.58m-15.09-.14V1.98a1.71 1.71 0 1 0-3.42 0v16.03a1.711 1.711 0 0 0 3.42 0m-10.28 0V1.988a1.705 1.705 0 1 0-3.41 0v16.027c0 .944.76 1.71 1.7 1.71s1.704-.766 1.704-1.71m-4.76-8.07c0-.874-.71-1.583-1.58-1.583H3.42V2.09C3.417 1.158 2.723.33 1.8.28A1.71 1.71 0 0 0 0 1.988v15.93c0 .926.693 1.755 1.617 1.803.985.06 1.8-.73 1.8-1.7v-6.49h6.35c.875 0 1.584-.71 1.584-1.58"
		fill="#3b4349" />
</svg>
