<svg xmlns="http://www.w3.org/2000/svg" xmlns:xlink="http://www.w3.org/1999/xlink" viewBox="0 0 16 16">
	<g id="item-event-completed">
		<g stroke="none" stroke-width="1" fill="none" fill-rule="evenodd"> <g> <g fill-rule="nonzero"> <path d="M15,2 L13,2 L13,0 L11,0 L11,2 L5,2 L5,0 L3,0 L3,2 L1,2 C0.448,2 0,2.448 0,3 L0,5 L16,5 L16,3 C16,2.448 15.552,2 15,2 Z" fill="#A2B8C8"></path> <path d="M0,6 L0,15 C0,15.6 0.4,16 1,16 L15,16 C15.6,16 16,15.6 16,15 L16,6 L0,6 Z" fill="#C4D2DA"></path> </g> <path d="M6.45092025,14.1619056 C6.24386503,14.1619056 6.10582822,14.0879065 5.96779141,13.9399082 L3.20705521,10.9799436 C2.9309816,10.6839472 2.9309816,10.2399525 3.20705521,9.94395604 C3.48312883,9.64795958 3.89723926,9.64795958 4.17331288,9.94395604 L6.45092025,12.3859268 L11.696319,7.2059888 C11.9723926,6.90999234 12.5935583,6.687995 12.8696319,6.98399145 C13.1457055,7.27998791 12.9386503,8.16797729 12.6625767,8.46397375 L6.93404908,13.9399082 C6.79601227,14.0879065 6.65797546,14.1619056 6.45092025,14.1619056 Z" fill="#FFFFFF"></path> </g> </g>
	</g>
</svg>
