<svg xmlns="http://www.w3.org/2000/svg" xmlns:xlink="http://www.w3.org/1999/xlink" viewBox="0 0 16 16">
	<g id="item-event">
		<g stroke="none" stroke-width="1" fill="none" fill-rule="evenodd"> <g fill-rule="nonzero"> <g> <path d="M15,2 L13,2 L13,0 L11,0 L11,2 L5,2 L5,0 L3,0 L3,2 L1,2 C0.448,2 0,2.448 0,3 L0,5 L16,5 L16,3 C16,2.448 15.552,2 15,2 Z" fill="#A2B8C8"></path> <path d="M0,6 L0,15 C0,15.6 0.4,16 1,16 L15,16 C15.6,16 16,15.6 16,15 L16,6 L0,6 Z" fill="#C4D2DA"></path> </g> </g> </g>
	</g>
</svg>
