<svg xmlns="http://www.w3.org/2000/svg" xmlns:xlink="http://www.w3.org/1999/xlink" viewBox="0 0 17 16">
	<g id="item-form-star">
		<g stroke="none" stroke-width="1" fill="none" fill-rule="evenodd"> <g transform="translate(-522.000000, -28.000000)" fill-rule="nonzero" fill="#50B9F9"> <g transform="translate(522.000000, 28.000000)"> <g> <path d="M13.0613711,15.3276605 C12.8479365,15.3274589 12.6394192,15.2635585 12.4625184,15.1441411 L8.85974348,12.7294126 C8.82340789,12.7043243 8.77534264,12.7043243 8.73900705,12.7294126 L5.1362321,15.1441411 C4.76582426,15.3914667 4.28108185,15.3840293 3.91843604,15.1254564 C3.55579023,14.8668835 3.39077491,14.4110321 3.50387563,13.980242 L4.6870926,9.8075911 C4.69852692,9.76470636 4.68333524,9.71913133 4.64845694,9.69168413 L1.23886027,7.01133547 C0.870853606,6.73718454 0.718128735,6.25922164 0.858979884,5.8224739 C0.999831033,5.38572615 1.40302313,5.08704647 1.86186023,5.07955266 L6.20837157,4.91535112 C6.25202646,4.91233739 6.28984416,4.88397412 6.30496071,4.84290926 L7.80209239,0.77167698 C7.95667349,0.348902286 8.35888559,0.0677103758 8.80903418,0.0677103758 C9.25918277,0.0677103758 9.66139488,0.348902286 9.81597597,0.77167698 L11.3131077,4.84290926 C11.3282242,4.88397412 11.3660419,4.91233739 11.4096968,4.91535112 L15.7562081,5.07955266 C16.2150452,5.08704647 16.6182373,5.38572615 16.7590885,5.8224739 C16.8999396,6.25922164 16.7472148,6.73718454 16.3792081,7.01133547 L12.9696114,9.69168413 C12.9335854,9.71831111 12.9181311,9.76467389 12.9309758,9.8075911 L14.1141927,13.980242 C14.1983701,14.3046429 14.1267272,14.6497424 13.9203792,14.9138301 C13.7140311,15.1779177 13.3965,15.3308896 13.0613711,15.3276605 Z"></path> </g> </g> </g> </g>
	</g>
</svg>
