<svg xmlns="http://www.w3.org/2000/svg" xmlns:xlink="http://www.w3.org/1999/xlink" viewBox="0 0 17 16">
	<g id="item-form-star-off">
		<g stroke="none" stroke-width="1" fill="none" fill-rule="evenodd"> <g transform="translate(-522.000000, -428.000000)" fill-rule="nonzero" fill="#50A6DB"> <g transform="translate(522.000000, 428.000000)"> <path d="M13.0613711,15.3276605 C12.8479365,15.3274589 12.6394192,15.2635585 12.4625184,15.1441411 L8.85974348,12.7294126 C8.82340789,12.7043243 8.77534264,12.7043243 8.73900705,12.7294126 L5.1362321,15.1441411 C4.76582426,15.3914667 4.28108185,15.3840293 3.91843604,15.1254564 C3.55579023,14.8668835 3.39077491,14.4110321 3.50387563,13.980242 L4.6870926,9.8075911 C4.69852692,9.76470636 4.68333524,9.71913133 4.64845694,9.69168413 L1.23886027,7.01133547 C0.870853606,6.73718454 0.718128735,6.25922164 0.858979884,5.8224739 C0.999831033,5.38572615 1.40302313,5.08704647 1.86186023,5.07955266 L6.20837157,4.91535112 C6.25202646,4.91233739 6.28984416,4.88397412 6.30496071,4.84290926 L7.80209239,0.77167698 C7.95667349,0.348902286 8.35888559,0.0677103758 8.80903418,0.0677103758 C9.25918277,0.0677103758 9.66139488,0.348902286 9.81597597,0.77167698 L11.3131077,4.84290926 C11.3282242,4.88397412 11.3660419,4.91233739 11.4096968,4.91535112 L15.7562081,5.07955266 C16.2150452,5.08704647 16.6182373,5.38572615 16.7590885,5.8224739 C16.8999396,6.25922164 16.7472148,6.73718454 16.3792081,7.01133547 L12.9696114,9.69168413 C12.9335854,9.71831111 12.9181311,9.76467389 12.9309758,9.8075911 L14.1141927,13.980242 C14.1983701,14.3046429 14.1267272,14.6497424 13.9203792,14.9138301 C13.7140311,15.1779177 13.3965,15.3308896 13.0613711,15.3276605 Z M8.80178999,11.7442034 C9.01565295,11.7507456 9.22261291,11.8214149 9.39581321,11.9470406 L12.9985882,14.3617691 C13.0360867,14.3902699 13.0878737,14.3906811 13.1258202,14.3627793 C13.1637666,14.3348776 13.1788142,14.2853232 13.1627897,14.2410327 L11.9795727,10.0683818 C11.8604605,9.64963763 12.0076186,9.20051858 12.3514409,8.93345937 L15.7610376,6.25311072 C15.7992194,6.2262922 15.8154362,6.17770137 15.8010145,6.13332687 C15.7865927,6.08895236 15.7449078,6.0591796 15.6982546,6.05993244 L11.3517433,5.8957309 C10.9164282,5.87876226 10.5346613,5.60007241 10.3858519,5.19063017 L8.88872022,1.11939789 C8.87486617,1.07503069 8.83378154,1.0448187 8.78730162,1.0448187 C8.74082171,1.0448187 8.69973708,1.07503069 8.68588303,1.11939789 L7.20323972,5.18580071 C7.05443034,5.59524295 6.67266341,5.87393281 6.23734831,5.89090144 L1.89083697,6.05510298 C1.84418383,6.05435014 1.80249888,6.08412291 1.78807716,6.12849741 C1.77365545,6.17287191 1.78987224,6.22146274 1.82805403,6.24828126 L5.24248016,8.93345937 C5.58517193,9.20131338 5.73207895,9.64966597 5.61434835,10.0683818 L4.43596083,14.2410327 C4.42151164,14.2839611 4.43728009,14.3312664 4.47459649,14.3569396 C4.51074247,14.3878566 4.5640164,14.3878566 4.60016237,14.3569396 L8.20293732,11.9422111 C8.37901187,11.8254161 8.58567105,11.7632503 8.79696054,11.7635212 L8.80178999,11.7442034 Z" id="Shape"></path> </g> </g> </g>
	</g>
</svg>
