<svg xmlns="http://www.w3.org/2000/svg" xmlns:xlink="http://www.w3.org/1999/xlink" viewBox="0 0 16 16">
	<g id="item-star-off">
		<g  stroke="none" stroke-width="1" fill="none" fill-rule="evenodd"> <g fill-rule="nonzero" fill="#B7C7D1"> <path d="M11.86,15.542 L8,13.513 L4.14,15.542 C3.413,15.929 2.548,15.307 2.689,14.488 L3.426,10.189 L0.302,7.145 C0.0438210979,6.89290612 0.039,5.558 0.857,5.439 L5.173,4.812 L7.104,0.9 C7.44,0.217 8.561,0.217 8.897,0.9 L10.828,4.811 L15.144,5.438 C15.962,5.557 15.9981788,6.85137996 15.699,7.144 L12.575,10.189 L13.312,14.488 C13.453,15.311 12.586,15.924 11.86,15.542 Z M8.466,11.498 L10.998,12.829 L10.515,10.009 C10.459,9.685 10.567,9.354 10.802,9.124 L12.851,7.126 L10.02,6.715 C9.693,6.668 9.412,6.463 9.267,6.168 L8,3.602 L6.733,6.168 C6.587,6.463 6.306,6.668 5.98,6.715 L3.149,7.126 L5.198,9.124 C5.433,9.353 5.541,9.685 5.485,10.009 L5.002,12.829 L7.534,11.498 C7.826,11.344 8.174,11.344 8.466,11.498 Z"></path> </g> </g>
	</g>
</svg>
