<svg xmlns="http://www.w3.org/2000/svg" xmlns:xlink="http://www.w3.org/1999/xlink" viewBox="0 0 16 16">
	<g id="item-note">
		<g stroke="none" stroke-width="1" fill="none" fill-rule="evenodd"> <g> <g> <rect fill="#FFFFFF" x="1" y="1" width="14" height="14"></rect> <path d="M15,0 L1,0 C0.4,0 0,0.4 0,1 L0,15 C0,15.6 0.4,16 1,16 L15,16 C15.6,16 16,15.6 16,15 L16,1 C16,0.4 15.6,0 15,0 Z M9,13 L3,13 L3,11 L9,11 L9,13 Z M13,9 L3,9 L3,7 L13,7 L13,9 Z M13,5 L3,5 L3,3 L13,3 L13,5 Z" fill="#C4D2DA" fill-rule="nonzero"></path> </g> </g> </g>
	</g>
</svg>
