<?xml version="1.0" encoding="UTF-8"?>
<svg width="16px" height="16px" viewBox="0 0 16 16" version="1.1" xmlns="http://www.w3.org/2000/svg" xmlns:xlink="http://www.w3.org/1999/xlink">
    <!-- Generator: Sketch 49.3 (51167) - http://www.bohemiancoding.com/sketch -->
    <title>Item Form /calendar</title>
    <desc>Created with Sketch.</desc>
    <defs></defs>
    <g id="Item-Form-/calendar" stroke="none" stroke-width="1" fill="none" fill-rule="evenodd" stroke-linecap="round" stroke-linejoin="round">
        <g id="calendar-grid-61" stroke="#7A8090">
            <path d="M14.5,2.5 L1.5,2.5 C0.948,2.5 0.5,2.948 0.5,3.5 L0.5,14.5 C0.5,15.052 0.948,15.5 1.5,15.5 L14.5,15.5 C15.052,15.5 15.5,15.052 15.5,14.5 L15.5,3.5 C15.5,2.948 15.052,2.5 14.5,2.5 Z" id="Shape"></path>
            <path d="M0.5,5.5 L15.5,5.5" id="Shape"></path>
            <path d="M4.5,0.5 L4.5,2.5" id="Shape"></path>
            <path d="M11.5,0.5 L11.5,2.5" id="Shape"></path>
            <path d="M5.5,7.5 L5.5,13.5" id="Shape"></path>
            <path d="M10.5,7.5 L10.5,13.5" id="Shape"></path>
            <path d="M2.5,10.5 L13.5,10.5" id="Shape"></path>
        </g>
    </g>
</svg>