<?xml version="1.0" encoding="UTF-8"?>
<!DOCTYPE svg PUBLIC "-//W3C//DTD SVG 1.1//EN" "http://www.w3.org/Graphics/SVG/1.1/DTD/svg11.dtd">
<svg xmlns="http://www.w3.org/2000/svg" xmlns:xlink="http://www.w3.org/1999/xlink">
	<symbol id="google-g" viewBox="0 0 18 18">
		<g fill="none" fill-rule="evenodd"><path d="M17.64 9.205c0-.639-.057-1.252-.164-1.841H9v3.481h4.844a4.14 4.14 0 0 1-1.796 2.716v2.259h2.908c1.702-1.567 2.684-3.875 2.684-6.615z" fill="#4285F4"/><path d="M9 18c2.43 0 4.467-.806 5.956-2.18l-2.908-2.259c-.806.54-1.837.86-3.048.86-2.344 0-4.328-1.584-5.036-3.711H.957v2.332A8.997 8.997 0 0 0 9 18z" fill="#34A853"/><path d="M3.964 10.71A5.41 5.41 0 0 1 3.682 9c0-.593.102-1.17.282-1.71V4.958H.957A8.996 8.996 0 0 0 0 9c0 1.452.348 2.827.957 4.042l3.007-2.332z" fill="#FBBC05"/><path d="M9 3.58c1.321 0 2.508.454 3.44 1.345l2.582-2.58C13.463.891 11.426 0 9 0A8.997 8.997 0 0 0 .957 4.958L3.964 7.29C4.672 5.163 6.656 3.58 9 3.58z" fill="#EA4335"/><path d="M0 0h18v18H0V0z"/></g>
	</symbol>
	<symbol id="hitask-symbol" viewBox="0 0 300 300">
		<g fill="#fe424d"><path d="M47.63 300a47.68 47.68 0 0 1-42.59-69L107.37 26.35a47.662 47.662 0 0 1 85.26 42.63L90.3 273.64A47.66 47.66 0 0 1 47.63 300"/><path d="M252.37 300a47.66 47.66 0 0 1-42.67-26.36L107.37 68.98a47.662 47.662 0 0 1 85.26-42.63l102.33 204.66a47.68 47.68 0 0 1-42.59 69"/></g>
	</symbol>
	<symbol id="hitask" viewBox="0 0 109 20">
		<path d="M64.084 8.338l-2.918-6.635C60.844.966 60.21.383 59.426.21a2.45 2.45 0 0 0-2.784 1.408l-3 6.874a1.559 1.559 0 1 0 2.86 1.237l2.328-5.45 2.303 5.4c.31.72 1.11 1.14 1.916.93.99-.26 1.44-1.34 1.03-2.28" fill="#fe424d"/><path
		d="M108.34 17.028l-6.39-8.39 5.617-5.81c.923-.955.246-2.55-1.082-2.55-.414 0-.81.17-1.093.47l-8.805 9.308-2.923 3.09a1.802 1.802 0 0 0-.493 1.24v3.517c0 .933.7 1.777 1.64 1.818.98.05 1.79-.73 1.79-1.7v-3.93l3.03-3.11 6.15 8.1c.43.56 1.17.8 1.88.56 1.148-.4 1.445-1.63.708-2.59M96.59 7.43V2.083c0-.925-.692-1.754-1.616-1.802h-.094c-.944 0-1.71.77-1.71 1.71v5.44c0 .95.766 1.71 1.71 1.71.942 0 1.707-.76 1.707-1.71m-9.112 6.77c0-3.27-2.138-4.75-6.25-5.75-3.722-.89-4.61-1.55-4.61-3.05 0-1.33 1.166-2.36 3.166-2.36 1.36 0 2.71.41 4.05 1.19.73.42 1.65.24 2.13-.44.55-.77.31-1.84-.51-2.32C83.83.51 82 0 79.84 0c-3.867 0-6.64 2.306-6.64 5.64 0 3.638 2.333 4.86 6.472 5.833 3.61.86 4.39 1.61 4.39 3 0 1.527-1.335 2.5-3.446 2.5-1.914 0-3.48-.576-4.974-1.617a1.607 1.607 0 0 0-2.155.266c-.62.736-.443 1.837.358 2.37C75.86 19.336 78.14 20 80.53 20c4.084 0 6.945-2.167 6.945-5.805m-19.43 3.245l-1.878-4.348a1.807 1.807 0 0 0-1.656-1.096l-2.35-.002v.002h-8.85c-.74 0-1.42.45-1.72 1.143l-1.91 4.43c-.46 1.07.32 2.27 1.48 2.27a1.6 1.6 0 0 0 1.48-.99l1.73-4.19 8.874-.03 1.81 4.17c.313.75 1.13 1.19 1.957.97 1.02-.27 1.486-1.38 1.06-2.358M47.64 1.772c-.047-.853-.815-1.5-1.672-1.5H44.4c-.874 0-1.582.71-1.582 1.587 0 .88.708 1.59 1.583 1.59h1.66c.9 0 1.63-.76 1.58-1.67m-6.16 16.36V2.1c0-1.008-.82-1.827-1.82-1.827h-6.2c-.9 0-1.63.755-1.58 1.668.04.86.81 1.5 1.67 1.5h4.49v14.7c0 .88.71 1.59 1.59 1.59h.28c.87 0 1.58-.71 1.58-1.58m-15.09-.14V1.98a1.71 1.71 0 1 0-3.42 0v16.03a1.711 1.711 0 0 0 3.42 0m-10.28 0V1.988a1.705 1.705 0 1 0-3.41 0v16.027c0 .944.76 1.71 1.7 1.71s1.704-.766 1.704-1.71m-4.76-8.07c0-.874-.71-1.583-1.58-1.583H3.42V2.09C3.417 1.158 2.723.33 1.8.28A1.71 1.71 0 0 0 0 1.988v15.93c0 .926.693 1.755 1.617 1.803.985.06 1.8-.73 1.8-1.7v-6.49h6.35c.875 0 1.584-.71 1.584-1.58"
		fill="#3b4349"/>
	</symbol>
	<symbol id="item-event" viewBox="0 0 16 16">
		<g stroke="none" stroke-width="1" fill="none" fill-rule="evenodd"> <g fill-rule="nonzero"> <g> <path d="M15,2 L13,2 L13,0 L11,0 L11,2 L5,2 L5,0 L3,0 L3,2 L1,2 C0.448,2 0,2.448 0,3 L0,5 L16,5 L16,3 C16,2.448 15.552,2 15,2 Z" fill="#A2B8C8"></path> <path d="M0,6 L0,15 C0,15.6 0.4,16 1,16 L15,16 C15.6,16 16,15.6 16,15 L16,6 L0,6 Z" fill="#C4D2DA"></path> </g> </g> </g>
	</symbol>
	<symbol id="item-event-completed" viewBox="0 0 16 16">
		<g stroke="none" stroke-width="1" fill="none" fill-rule="evenodd"> <g> <g fill-rule="nonzero"> <path d="M15,2 L13,2 L13,0 L11,0 L11,2 L5,2 L5,0 L3,0 L3,2 L1,2 C0.448,2 0,2.448 0,3 L0,5 L16,5 L16,3 C16,2.448 15.552,2 15,2 Z" fill="#A2B8C8"></path> <path d="M0,6 L0,15 C0,15.6 0.4,16 1,16 L15,16 C15.6,16 16,15.6 16,15 L16,6 L0,6 Z" fill="#C4D2DA"></path> </g> <path d="M6.45092025,14.1619056 C6.24386503,14.1619056 6.10582822,14.0879065 5.96779141,13.9399082 L3.20705521,10.9799436 C2.9309816,10.6839472 2.9309816,10.2399525 3.20705521,9.94395604 C3.48312883,9.64795958 3.89723926,9.64795958 4.17331288,9.94395604 L6.45092025,12.3859268 L11.696319,7.2059888 C11.9723926,6.90999234 12.5935583,6.687995 12.8696319,6.98399145 C13.1457055,7.27998791 12.9386503,8.16797729 12.6625767,8.46397375 L6.93404908,13.9399082 C6.79601227,14.0879065 6.65797546,14.1619056 6.45092025,14.1619056 Z" fill="#FFFFFF"></path> </g> </g>
	</symbol>
	<symbol id="item-file" viewBox="0 0 16 16">
		<g stroke="none" stroke-width="1" fill="none" fill-rule="evenodd"> <g fill-rule="nonzero"> <g transform="translate(1.000000, 0.000000)"> <g> <path d="M8,5 C8,5.368 8.62363636,6 9,6 L14,6 L14,15.3333333 C14,15.7013333 13.6945455,16 13.3181818,16 L1,16 L0,16 L0,5.55111512e-16 L1,0 L8,0 L8,5 Z" fill="#DDE2E6"></path> <polygon fill="#B7C7D1" points="14 5 9 5 9 0"></polygon> </g> </g> </g> </g>
	</symbol>
	<symbol id="item-note" viewBox="0 0 16 16">
		<g stroke="none" stroke-width="1" fill="none" fill-rule="evenodd"> <g> <g> <rect fill="#FFFFFF" x="1" y="1" width="14" height="14"></rect> <path d="M15,0 L1,0 C0.4,0 0,0.4 0,1 L0,15 C0,15.6 0.4,16 1,16 L15,16 C15.6,16 16,15.6 16,15 L16,1 C16,0.4 15.6,0 15,0 Z M9,13 L3,13 L3,11 L9,11 L9,13 Z M13,9 L3,9 L3,7 L13,7 L13,9 Z M13,5 L3,5 L3,3 L13,3 L13,5 Z" fill="#C4D2DA" fill-rule="nonzero"></path> </g> </g> </g>
	</symbol>
	<symbol id="item-priority-high" viewBox="0 0 16 16">
		<g stroke="none" stroke-width="1" fill="none" fill-rule="evenodd"> <g> <g transform="translate(3.000000, 2.000000)"> <polygon fill="#415584" points="7 11 3 11 3 12 7 12"></polygon> <path d="M5,0 L0,7 L3,7 L3,10 L4.16666667,10 L5.83333333,10 L7,10 L7,7 L10,7 L5,0 Z" fill="#FE424D"></path> </g> </g> </g>
	</symbol>
	<symbol id="item-priority-low" viewBox="0 0 16 16">
		<g stroke="none" stroke-width="1" fill="none" fill-rule="evenodd"> <g fill="#A2B8C8"> <g transform="translate(3.000000, 2.000000)"> <polygon transform="translate(5.000000, 0.500000) scale(1, -1) translate(-5.000000, -0.500000) " points="7 0 3 0 3 1 7 1"></polygon> <path d="M5,2 L0,9 L3,9 L3,12 L4.16666667,12 L5.83333333,12 L7,12 L7,9 L10,9 L5,2 Z" transform="translate(5.000000, 7.000000) scale(1, -1) translate(-5.000000, -7.000000) "></path> </g> </g> </g>
	</symbol>
	<symbol id="item-star" viewBox="0 0 16 16">
		<g stroke="none" stroke-width="1" fill="none" fill-rule="evenodd"> <g fill-rule="nonzero" fill="#50B9F9"> <path d="M15.1445847,5.05025 L10.8285847,4.42325 L8.8975847,0.51225 C8.68464049,0.081951484 7.30016783,0.115012488 7.1035847,0.51225 L5.1735847,4.42325 L0.8565847,5.05025 C0.0395846999,5.16925 0.0313539497,6.49241189 0.3025847,6.75725 L3.4265847,9.80125 L2.6895847,14.10025 C2.5505847,14.91425 3.4065847,15.53925 4.1405847,15.15425 L8.0005847,13.12525 L11.8615847,15.15525 C12.5895847,15.53625 13.4525847,14.92125 13.3125847,14.10125 L12.5755847,9.80225 L15.6995847,6.75825 C15.9876108,6.4760524 15.9615847,5.16925 15.1445847,5.05025 Z"></path> </g> </g>
	</symbol>
	<symbol id="item-star-off" viewBox="0 0 16 16">
		<g  stroke="none" stroke-width="1" fill="none" fill-rule="evenodd"> <g fill-rule="nonzero" fill="#B7C7D1"> <path d="M11.86,15.542 L8,13.513 L4.14,15.542 C3.413,15.929 2.548,15.307 2.689,14.488 L3.426,10.189 L0.302,7.145 C0.0438210979,6.89290612 0.039,5.558 0.857,5.439 L5.173,4.812 L7.104,0.9 C7.44,0.217 8.561,0.217 8.897,0.9 L10.828,4.811 L15.144,5.438 C15.962,5.557 15.9981788,6.85137996 15.699,7.144 L12.575,10.189 L13.312,14.488 C13.453,15.311 12.586,15.924 11.86,15.542 Z M8.466,11.498 L10.998,12.829 L10.515,10.009 C10.459,9.685 10.567,9.354 10.802,9.124 L12.851,7.126 L10.02,6.715 C9.693,6.668 9.412,6.463 9.267,6.168 L8,3.602 L6.733,6.168 C6.587,6.463 6.306,6.668 5.98,6.715 L3.149,7.126 L5.198,9.124 C5.433,9.353 5.541,9.685 5.485,10.009 L5.002,12.829 L7.534,11.498 C7.826,11.344 8.174,11.344 8.466,11.498 Z"></path> </g> </g>
	</symbol>
	<symbol id="empty-state-item" viewBox="0 0 100 100">
		<g stroke="none" stroke-width="1" fill="none" fill-rule="evenodd"> <g  fill-rule="nonzero"> <g transform="translate(16.000000, 8.000000)"> <path d="M65.3684211,84 L3.63157895,84 C1.62513158,84 0,82.3656522 0,80.3478261 L0,3.65217391 C0,1.63434783 1.62513158,0 3.63157895,0 L47.2105263,0 L69,21.9130435 L69,80.3478261 C69,82.3656522 67.3748684,84 65.3684211,84 Z" fill="#D3D8E8"></path> <path d="M47,0 L47,18.3333333 C47,20.3591667 48.6408333,22 50.6666667,22 L69,22 L47,0 Z" fill="#C2C7DA"></path> <path d="M27.1668704,55 C26.6975501,55 26.2282298,54.8180032 25.8707397,54.4558669 L18.5376101,47.0274281 C17.8207966,46.3012982 17.8207966,45.1276049 18.5376101,44.401475 C19.2544235,43.6753451 20.413058,43.6753451 21.1298714,44.401475 L27.1668704,50.5169372 L47.8701286,29.5445974 C48.586942,28.8184675 49.7455765,28.8184675 50.4623899,29.5445974 C51.1792034,30.2707273 51.1792034,31.4444206 50.4623899,32.1705505 L28.463001,54.4558669 C28.105511,54.8180032 27.6361907,55 27.1668704,55 Z" fill="#FFFFFF"></path> </g> </g> </g>
	</symbol>
	<symbol id="icon-link" viewBox="0 0 18 16">
		<g stroke="none" stroke-width="1" fill="none" fill-rule="evenodd"> <g fill-rule="nonzero" fill="#FE424D"> <g> <path d="M5.5,16 C4.3,16 3.2,15.5 2.3,14.7 C0.5,12.9 0.5,10.1 2.3,8.3 L3,7.6 L4.4,9 L3.7,9.7 C2.7,10.7 2.7,12.3 3.7,13.3 C4.7,14.3 6.3,14.3 7.3,13.3 L10.3,10.3 C11.3,9.3 11.3,7.7 10.3,6.7 L9.6,6 L11,4.6 L11.7,5.3 C13.5,7.1 13.5,9.9 11.7,11.7 L8.7,14.7 C7.9,15.5 6.7,16 5.5,16 Z"></path> <path d="M7,11.4 L6.3,10.7 C4.5,8.9 4.5,6.1 6.3,4.3 L9.3,1.3 C10.2,0.4 11.3,8.8817842e-16 12.5,8.8817842e-16 C13.7,8.8817842e-16 14.8,0.5 15.7,1.3 C17.5,3.1 17.5,5.9 15.7,7.7 L15,8.4 L13.6,7 L14.3,6.3 C15.3,5.3 15.3,3.7 14.3,2.7 C13.3,1.7 11.7,1.7 10.7,2.7 L7.7,5.7 C6.7,6.7 6.7,8.3 7.7,9.3 L8.4,10 L7,11.4 Z"></path> </g> </g> </g>
	</symbol>
	<symbol id="item-form-star" viewBox="0 0 17 16">
		<g stroke="none" stroke-width="1" fill="none" fill-rule="evenodd"> <g transform="translate(-522.000000, -28.000000)" fill-rule="nonzero" fill="#50B9F9"> <g transform="translate(522.000000, 28.000000)"> <g> <path d="M13.0613711,15.3276605 C12.8479365,15.3274589 12.6394192,15.2635585 12.4625184,15.1441411 L8.85974348,12.7294126 C8.82340789,12.7043243 8.77534264,12.7043243 8.73900705,12.7294126 L5.1362321,15.1441411 C4.76582426,15.3914667 4.28108185,15.3840293 3.91843604,15.1254564 C3.55579023,14.8668835 3.39077491,14.4110321 3.50387563,13.980242 L4.6870926,9.8075911 C4.69852692,9.76470636 4.68333524,9.71913133 4.64845694,9.69168413 L1.23886027,7.01133547 C0.870853606,6.73718454 0.718128735,6.25922164 0.858979884,5.8224739 C0.999831033,5.38572615 1.40302313,5.08704647 1.86186023,5.07955266 L6.20837157,4.91535112 C6.25202646,4.91233739 6.28984416,4.88397412 6.30496071,4.84290926 L7.80209239,0.77167698 C7.95667349,0.348902286 8.35888559,0.0677103758 8.80903418,0.0677103758 C9.25918277,0.0677103758 9.66139488,0.348902286 9.81597597,0.77167698 L11.3131077,4.84290926 C11.3282242,4.88397412 11.3660419,4.91233739 11.4096968,4.91535112 L15.7562081,5.07955266 C16.2150452,5.08704647 16.6182373,5.38572615 16.7590885,5.8224739 C16.8999396,6.25922164 16.7472148,6.73718454 16.3792081,7.01133547 L12.9696114,9.69168413 C12.9335854,9.71831111 12.9181311,9.76467389 12.9309758,9.8075911 L14.1141927,13.980242 C14.1983701,14.3046429 14.1267272,14.6497424 13.9203792,14.9138301 C13.7140311,15.1779177 13.3965,15.3308896 13.0613711,15.3276605 Z"></path> </g> </g> </g> </g>
	</symbol>
	<symbol id="item-form-star-off" viewBox="0 0 17 16">
		<g stroke="none" stroke-width="1" fill="none" fill-rule="evenodd"> <g transform="translate(-522.000000, -428.000000)" fill-rule="nonzero" fill="#50A6DB"> <g transform="translate(522.000000, 428.000000)"> <path d="M13.0613711,15.3276605 C12.8479365,15.3274589 12.6394192,15.2635585 12.4625184,15.1441411 L8.85974348,12.7294126 C8.82340789,12.7043243 8.77534264,12.7043243 8.73900705,12.7294126 L5.1362321,15.1441411 C4.76582426,15.3914667 4.28108185,15.3840293 3.91843604,15.1254564 C3.55579023,14.8668835 3.39077491,14.4110321 3.50387563,13.980242 L4.6870926,9.8075911 C4.69852692,9.76470636 4.68333524,9.71913133 4.64845694,9.69168413 L1.23886027,7.01133547 C0.870853606,6.73718454 0.718128735,6.25922164 0.858979884,5.8224739 C0.999831033,5.38572615 1.40302313,5.08704647 1.86186023,5.07955266 L6.20837157,4.91535112 C6.25202646,4.91233739 6.28984416,4.88397412 6.30496071,4.84290926 L7.80209239,0.77167698 C7.95667349,0.348902286 8.35888559,0.0677103758 8.80903418,0.0677103758 C9.25918277,0.0677103758 9.66139488,0.348902286 9.81597597,0.77167698 L11.3131077,4.84290926 C11.3282242,4.88397412 11.3660419,4.91233739 11.4096968,4.91535112 L15.7562081,5.07955266 C16.2150452,5.08704647 16.6182373,5.38572615 16.7590885,5.8224739 C16.8999396,6.25922164 16.7472148,6.73718454 16.3792081,7.01133547 L12.9696114,9.69168413 C12.9335854,9.71831111 12.9181311,9.76467389 12.9309758,9.8075911 L14.1141927,13.980242 C14.1983701,14.3046429 14.1267272,14.6497424 13.9203792,14.9138301 C13.7140311,15.1779177 13.3965,15.3308896 13.0613711,15.3276605 Z M8.80178999,11.7442034 C9.01565295,11.7507456 9.22261291,11.8214149 9.39581321,11.9470406 L12.9985882,14.3617691 C13.0360867,14.3902699 13.0878737,14.3906811 13.1258202,14.3627793 C13.1637666,14.3348776 13.1788142,14.2853232 13.1627897,14.2410327 L11.9795727,10.0683818 C11.8604605,9.64963763 12.0076186,9.20051858 12.3514409,8.93345937 L15.7610376,6.25311072 C15.7992194,6.2262922 15.8154362,6.17770137 15.8010145,6.13332687 C15.7865927,6.08895236 15.7449078,6.0591796 15.6982546,6.05993244 L11.3517433,5.8957309 C10.9164282,5.87876226 10.5346613,5.60007241 10.3858519,5.19063017 L8.88872022,1.11939789 C8.87486617,1.07503069 8.83378154,1.0448187 8.78730162,1.0448187 C8.74082171,1.0448187 8.69973708,1.07503069 8.68588303,1.11939789 L7.20323972,5.18580071 C7.05443034,5.59524295 6.67266341,5.87393281 6.23734831,5.89090144 L1.89083697,6.05510298 C1.84418383,6.05435014 1.80249888,6.08412291 1.78807716,6.12849741 C1.77365545,6.17287191 1.78987224,6.22146274 1.82805403,6.24828126 L5.24248016,8.93345937 C5.58517193,9.20131338 5.73207895,9.64966597 5.61434835,10.0683818 L4.43596083,14.2410327 C4.42151164,14.2839611 4.43728009,14.3312664 4.47459649,14.3569396 C4.51074247,14.3878566 4.5640164,14.3878566 4.60016237,14.3569396 L8.20293732,11.9422111 C8.37901187,11.8254161 8.58567105,11.7632503 8.79696054,11.7635212 L8.80178999,11.7442034 Z" id="Shape"></path> </g> </g> </g>
	</symbol>
	<symbol id="task-off" viewBox="0 0 16 16">
		<g id="Item-View" stroke="none" stroke-width="1" fill="none" fill-rule="evenodd">
        	<g id="Item-Complete" transform="translate(-79.000000, -41.000000)">
            	<g id="item-in-list-/-task-off" transform="translate(79.000000, 41.000000)">
					<g id="Rectangle-2">
						<use fill="#FFFFFF" fill-rule="evenodd" xlink:href="#path-1"></use>
						<rect stroke="#BBCBD7" stroke-width="1" x="0.5" y="0.5" width="15" height="15" rx="4"></rect>
					</g>
				</g>
			</g>
		</g>
	</symbol>
	<symbol id="task-hover" viewBox="0 0 16 16">
		<g id="Item-View" stroke="none" stroke-width="1" fill="none" fill-rule="evenodd">
        	<g id="Item-Complete" transform="translate(-79.000000, -85.000000)">
            	<g id="item-in-list-/-task-hover" transform="translate(79.000000, 85.000000)">
                	<g id="check-square-09" stroke-width="1" fill-rule="evenodd"></g>
						<g id="Rectangle-2">
							<use fill="#FFFFFF" fill-rule="evenodd" xlink:href="#path-1"></use>
							<rect stroke="#91A9BB" stroke-width="1" x="0.5" y="0.5" width="15" height="15" rx="4"></rect>
						</g>
					<polyline id="Shape" stroke="#E1E6EA" stroke-width="2" stroke-linecap="round" stroke-linejoin="round" points="4 8 7 11 13 5"></polyline>
				</g>
			</g>
		</g>
	</symbol>
	<symbol id="task-completed" viewBox="0 0 16 16">
		<g id="Item-View" stroke="none" stroke-width="1" fill="none" fill-rule="evenodd">
        	<g id="Item-Complete" transform="translate(-79.000000, -128.000000)">
            	<g id="item-in-list-/-task_completed" transform="translate(79.000000, 128.000000)">
                	<g id="check-square-09" stroke-width="1" fill-rule="evenodd"></g>
               		<g id="Rectangle-2">
                    	<use fill="#FFFFFF" fill-rule="evenodd" xlink:href="#path-1"></use>
                    	<rect stroke="#91A9BB" stroke-width="1" x="0.5" y="0.5" width="15" height="15" rx="4"></rect>
                	</g>
                	<polyline id="Shape" stroke="#91A9BB" stroke-width="2" stroke-linecap="round" stroke-linejoin="round" points="4 8 7 11 13 5"></polyline>
            	</g>
        	</g>
    	</g>
	</symbol>
	<symbol id="task-click" viewBox="0 0 16 16">
		<g id="Item-View" stroke="none" stroke-width="1" fill="none" fill-rule="evenodd">
			<g id="Item-Complete" transform="translate(-79.000000, -172.000000)">
				<g id="item-in-list-/-task-click" transform="translate(79.000000, 172.000000)">
					<g id="check-square-09" stroke-width="1" fill-rule="evenodd"></g>
					<g id="Rectangle-2">
						<use fill="#FFFFFF" fill-rule="evenodd" xlink:href="#path-1"></use>
						<rect stroke="#4A4A4A" stroke-width="1" x="0.5" y="0.5" width="15" height="15" rx="4"></rect>
					</g>
					<polyline id="Shape" stroke="#4A4A4A" stroke-width="2" stroke-linecap="round" stroke-linejoin="round" points="4 8 7 11 13 5"></polyline>
				</g>
			</g>
		</g>
	</symbol>
</svg>
